<svg id="498edb7e-7815-44f8-a197-aa8f641bfcf0" data-name="Calque 1" xmlns="http://www.w3.org/2000/svg" viewBox="0 0 50 50"><title>apprentis2</title><path d="M34.44,40.21l1.21.11a.52.52,0,0,0,.4-.14.5.5,0,0,0,.15-.4l-.12-1.21L37,37.8A.51.51,0,0,0,37,37l-.94-.77L36.2,35a.5.5,0,0,0-.15-.4.52.52,0,0,0-.4-.14l-1.21.11-.77-.93a.52.52,0,0,0-.77,0l-.78.93-1.2-.11a.49.49,0,0,0-.55.54l.12,1.21-.94.77a.51.51,0,0,0,0,.78l.94.77-.12,1.21a.53.53,0,0,0,.14.4.54.54,0,0,0,.41.14l1.2-.11.78.93a.47.47,0,0,0,.38.19.51.51,0,0,0,.39-.19Zm-1.71-.84a.5.5,0,0,0-.39-.18h-.05l-.87.08.09-.87a.53.53,0,0,0-.18-.43l-.68-.56.68-.56a.53.53,0,0,0,.18-.43l-.09-.87.87.08a.52.52,0,0,0,.44-.18l.55-.67.56.67a.5.5,0,0,0,.43.18l.87-.08-.08.87a.47.47,0,0,0,.18.43l.67.56-.67.56a.47.47,0,0,0-.18.43l.08.87-.87-.08a.5.5,0,0,0-.43.18l-.56.67Zm5,4.48a.51.51,0,0,1,0,.53.52.52,0,0,1-.49.22l-.72-.1-.25.68a.52.52,0,0,1-.43.32h0a.48.48,0,0,1-.43-.25l-1.79-3a.5.5,0,1,1,.86-.51l1.26,2.13,0-.08a.51.51,0,0,1,.54-.32h.08l-1.26-2.13a.49.49,0,0,1,.18-.68.5.5,0,0,1,.68.17ZM33,42.23l-1.79,3a.5.5,0,0,1-.43.25h-.05a.5.5,0,0,1-.42-.32l-.26-.68-.72.1a.5.5,0,0,1-.48-.22.51.51,0,0,1,0-.53l1.8-3a.5.5,0,0,1,.68-.17.49.49,0,0,1,.18.68l-1.27,2.13h.09a.52.52,0,0,1,.54.32l0,.08,1.26-2.13a.5.5,0,0,1,.68-.18A.51.51,0,0,1,33,42.23ZM41.89,5.59V41.88A1.08,1.08,0,0,1,40.8,43H39a.5.5,0,0,1-.5-.5A.5.5,0,0,1,39,42H40.8a.09.09,0,0,0,.09-.08V5.59a.09.09,0,0,0-.09-.09H12.71c-.15,0-3.6.07-3.6,4.18,0,.13.08,3,3.68,3.25V8.54c-.64.1-1.68.42-1.68,1.46a.46.46,0,0,0,.5.5.5.5,0,0,1,0,1,1.46,1.46,0,0,1-1.5-1.5c0-2,2.08-2.5,3.18-2.5a.5.5,0,0,1,.5.5V41.88a.09.09,0,0,0,.09.08H27.34a.5.5,0,0,1,.5.5.5.5,0,0,1-.5.5H13.88a1.08,1.08,0,0,1-1.09-1.08V13.93c-4.61-.28-4.68-4.21-4.68-4.25,0-5.12,4.55-5.18,4.6-5.18H40.8A1.09,1.09,0,0,1,41.89,5.59ZM18.65,16a.5.5,0,0,1,.5-.5H36.71a.51.51,0,0,1,.5.5.5.5,0,0,1-.5.5H19.15A.5.5,0,0,1,18.65,16Zm0-5a.5.5,0,0,1,.5-.5H36.71a.51.51,0,0,1,.5.5.5.5,0,0,1-.5.5H19.15A.5.5,0,0,1,18.65,11ZM36.71,21.21H19.15a.5.5,0,0,1-.5-.5.5.5,0,0,1,.5-.5H36.71a.5.5,0,0,1,.5.5A.51.51,0,0,1,36.71,21.21ZM19.15,25.89a.5.5,0,0,1,0-1h7a.5.5,0,0,1,0,1Zm16.39-1a.5.5,0,0,1,0,1H32a.5.5,0,0,1,0-1ZM23.37,37.25a1.27,1.27,0,0,1-.45,0,.4.4,0,0,1-.36-.28,9.22,9.22,0,0,1,0-3l-.18.14c-.22.18-.66.09-.64-.27a5,5,0,0,0-.22-2,16,16,0,0,0-1.18,3.25c-.11.43-.71.3-.74-.1a5.8,5.8,0,0,0-.28-2.21.93.93,0,0,0-1.49.06c-.42.51-.31,2.59-.36,3.37,0,.48-.79.48-.75,0,.08-1.2-.17-5.33,1.69-5.54,1.16-.13,1.6,1.13,1.78,2.38a16.9,16.9,0,0,1,1-2.3.38.38,0,0,1,.65,0,5.73,5.73,0,0,1,.62,2.29l.24-.19c.24-.19.66-.09.64.26a8.41,8.41,0,0,0-.11,2.06c-.26.59-.1.86.49.79l.36-.41c.69-.34.84-.71,1.67-.68a.38.38,0,0,1,.27.64,10,10,0,0,1-1.23,1.21h1.89a.38.38,0,0,1,0,.75h-3A.34.34,0,0,1,23.37,37.25Z"/></svg>