<svg id="7b750d9e-221b-4ed1-a052-e1bf79c3ab05" data-name="Calque 1" xmlns="http://www.w3.org/2000/svg" viewBox="0 0 50 50"><title>apprentis1</title><path d="M41.82,5.5H8.18A3.68,3.68,0,0,0,4.5,9.18V33.49a3.68,3.68,0,0,0,3.68,3.68H20.67V40a.5.5,0,0,0,.5.5.5.5,0,0,0,.5-.5V37.17h7V40a.5.5,0,0,0,.5.5.5.5,0,0,0,.5-.5V37.17H41.82a3.68,3.68,0,0,0,3.68-3.68V9.18A3.68,3.68,0,0,0,41.82,5.5ZM8.18,6.5H41.82A2.68,2.68,0,0,1,44.5,9.18V29.5H5.5V9.18A2.68,2.68,0,0,1,8.18,6.5ZM41.82,36.17H8.18A2.69,2.69,0,0,1,5.5,33.49v-3h39v3A2.69,2.69,0,0,1,41.82,36.17ZM25,31.5a2,2,0,1,0,2,2A2,2,0,0,0,25,31.5Zm0,3a1,1,0,1,1,1-1A1,1,0,0,1,25,34.5ZM9.67,44.5h24v-3h-24Zm1-2h22v1h-22Zm28-1.5a3,3,0,0,0-3,3,.5.5,0,0,0,.5.5h5a.5.5,0,0,0,.5-.5A3,3,0,0,0,38.67,41Zm-1.94,2.5a2,2,0,0,1,3.87,0ZM8.17,27.5h23a.5.5,0,0,0,.5-.5V10a.5.5,0,0,0-.5-.5h-23a.5.5,0,0,0-.5.5V27A.5.5,0,0,0,8.17,27.5Zm.5-15h2v14h-2Zm3,14v-14h19v14Zm19-16v1h-22v-1Zm2.5,16h9a.5.5,0,0,0,.5-.5V14a.5.5,0,0,0-.5-.5h-9a.5.5,0,0,0-.5.5V26A.5.5,0,0,0,33.17,26.5Zm.5-1v-9h8v9Zm8-11v1h-8v-1Zm-15,.5a.5.5,0,0,1-.5.5h-12a.5.5,0,0,1,0-1h12A.5.5,0,0,1,26.67,15Zm0,2a.5.5,0,0,1-.5.5h-12a.5.5,0,0,1,0-1h12A.5.5,0,0,1,26.67,17Zm0,2a.5.5,0,0,1-.5.5h-12a.5.5,0,0,1,0-1h12A.5.5,0,0,1,26.67,19Zm0,2a.5.5,0,0,1-.5.5h-12a.5.5,0,0,1,0-1h12A.5.5,0,0,1,26.67,21Z"/></svg>