<svg id="a934ccb1-6c46-4840-95e9-890609adfad7" data-name="Calque 1" xmlns="http://www.w3.org/2000/svg" viewBox="0 0 50 50"><title>apprentis3</title><path d="M40.9,18.14a.26.26,0,0,0,0-.08L40.8,18a18.05,18.05,0,0,0-6.75-6.66s0,0,0-.05l0,0a17.94,17.94,0,0,0-6.24-2.06,1.06,1.06,0,0,0,0-.19V8h1a1,1,0,0,0,1-1V6a1,1,0,0,0-1-1h-7a1,1,0,0,0-1,1V7a1,1,0,0,0,1,1h1V9a.58.58,0,0,0,0,.18,17.75,17.75,0,0,0-6.12,2,.5.5,0,0,0,.48.88,16.9,16.9,0,0,1,7.6-2V12.5a.5.5,0,0,0,1,0V10a16.69,16.69,0,0,1,7.31,1.89l-1.2,2.16a.49.49,0,0,0,.19.68.45.45,0,0,0,.25.07.51.51,0,0,0,.43-.26l1.2-2.16a17,17,0,0,1,5.8,5.73l-2.14,1.22a.51.51,0,0,0-.19.69.5.5,0,0,0,.44.25.42.42,0,0,0,.24-.07L40.24,19a16.7,16.7,0,0,1,2,7.5H39.75a.5.5,0,0,0,0,1h2.47A17,17,0,0,1,25.75,44V41.5a.5.5,0,0,0-1,0V44a16.87,16.87,0,0,1-7.27-1.87.51.51,0,0,0-.68.22A.5.5,0,0,0,17,43a17.79,17.79,0,0,0,8.23,2A18,18,0,0,0,40.9,18.14ZM21.75,7V6h7V7h-7Zm2,2V8h3V9Zm-9,7.5a.5.5,0,0,1,.5-.5h4a.5.5,0,0,1,0,1h-4A.5.5,0,0,1,14.75,16.5Zm-3.5,5a.5.5,0,0,1,.5-.5h7.5a.5.5,0,0,1,0,1h-7.5A.5.5,0,0,1,11.25,21.5Zm8,5.5h-12a.5.5,0,0,1,0-1h12a.5.5,0,0,1,0,1Zm0,5h-7.5a.5.5,0,0,1,0-1h7.5a.5.5,0,0,1,0,1Zm0,5h-4a.5.5,0,0,1,0-1h4a.5.5,0,0,1,0,1Zm7.85-9a2.11,2.11,0,0,0,.44-.87l6.09-10.4L24.5,24.6a2.1,2.1,0,0,0-.78.6,2.19,2.19,0,0,0-.51,1.61A2.25,2.25,0,0,0,24,28.3,2.2,2.2,0,0,0,27.1,28Zm-2.89-1.3a1.21,1.21,0,0,1,.27-.88A1.17,1.17,0,0,1,25,25.5l4.77-4.08-3.09,5.29-.06.15a1.15,1.15,0,0,1-.25.52,1.21,1.21,0,0,1-2.12-.66Z"/></svg>