<?xml version="1.0" encoding="utf-8"?>
<!-- Generator: Adobe Illustrator 22.1.0, SVG Export Plug-In . SVG Version: 6.00 Build 0)  -->
<svg version="1.1" id="_x37_c591ba5-1081-46d9-8dc1-95b6f273369f"
	 xmlns="http://www.w3.org/2000/svg" xmlns:xlink="http://www.w3.org/1999/xlink" x="0px" y="0px" viewBox="0 0 50 50"
	 style="enable-background:new 0 0 50 50;" xml:space="preserve">
<title>entreprise3</title>
<path d="M30.5,31.7v-2.1c0.9-0.9,1.7-2,2.1-3.2c1-0.4,1.9-1.1,2.6-1.8c1.2-1.2,1.8-2.8,1.8-4.5v-3.5C36.5,9.9,33.5,4.7,25,4.7
	s-11.4,5.9-11.9,11.7l0.4,1.8c-1,0.6-1.6,1.7-1.5,2.9c0,1.7,0.9,3,2,3v-1c-0.5,0-1-0.9-1-2s0.5-2,1-2h0.6L14,16.4
	c0-6.1,5-10.7,11-10.7c6.1,0,11,4.7,11,10.8l0,0V20c0,1.4-0.5,2.8-1.5,3.8c-0.5,0.5-1,0.9-1.6,1.2c0.1-0.4,0.1-0.8,0.1-1.2v-0.2
	c1.4,0,2.5-1.1,2.5-2.5c0-0.8-0.4-1.5-1-2v-2.5c0-5.2-4.2-9.5-9.5-9.5s-9.5,4.2-9.5,9.5c0,0,0,0,0,0v2.5c-1.1,0.8-1.3,2.4-0.5,3.5
	c0.5,0.6,1.2,1,2,1v0.2c0,2.2,0.9,4.3,2.5,5.8v2.1h-0.6C4.9,33,4.5,38.5,4.6,39.6v5c0,0.5,0.5,0.9,1,0.9c0,0,0,0,0,0h38.9
	c0.5,0,1-0.3,1-0.9c0,0,0,0,0,0v-5C45.5,38.5,45.1,32.8,30.5,31.7z M33,22.6v-3c0.8,0,1.5,0.7,1.5,1.5S33.8,22.6,33,22.6z
	 M15.5,21.1c0-0.8,0.7-1.5,1.5-1.5v3C16.2,22.6,15.5,21.9,15.5,21.1z M17,18.1v0.5c-0.2,0-0.3,0-0.5,0v-2c0-4.7,3.8-8.5,8.5-8.5
	s8.5,3.8,8.5,8.5v2c-0.2,0-0.3,0-0.5,0v-0.5c0-0.3-0.2-0.5-0.5-0.5c-1.8,0.1-3.4-1-4-2.6c-0.1-0.2-0.2-0.3-0.4-0.3
	c-0.2,0-0.4,0.1-0.5,0.2c0,0-2,2.8-10,2.8C17.3,17.5,17.1,17.7,17,18.1C17,18,17,18.1,17,18.1L17,18.1z M18,23.8v-5.2
	c6.1-0.1,8.8-1.7,9.8-2.6c0.9,1.5,2.4,2.5,4.2,2.6v5.2c0,0.6-0.1,1.2-0.2,1.8c-1.7,0.6-3.5,0.9-5.3,0.9c-0.3-0.8-1.1-1.2-1.9-0.9
	c-0.8,0.3-1.2,1.1-0.9,1.9c0.3,0.8,1.1,1.2,1.9,0.9c0.4-0.2,0.8-0.5,0.9-0.9c1.6,0,3.3-0.2,4.9-0.7c-0.4,0.8-1,1.6-1.7,2.2h-0.1v0.1
	c-2.6,2.2-6.4,2.2-9,0V29h-0.1C18.9,27.7,18,25.8,18,23.8L18,23.8z M25.5,27c0,0.3-0.2,0.5-0.5,0.5s-0.5-0.2-0.5-0.5
	s0.2-0.5,0.5-0.5C25.3,26.6,25.5,26.8,25.5,27L25.5,27z M25,31.8c1.6,0,3.2-0.5,4.5-1.4V32c0,0,0,2.5-4.5,2.5s-4.5-2.4-4.5-2.5v-1.6
	C21.8,31.3,23.4,31.8,25,31.8z M44.4,44.5H5.6v-5c0-0.6,0-5.6,13.5-6.8l0.6,0c0.3,1,1.4,2.6,4.9,2.8V40c0,0.3,0.2,0.5,0.5,0.5
	s0.5-0.2,0.5-0.5v-4.5c3.5-0.1,4.5-1.8,4.8-2.8c14,1,14.1,6.2,14.1,6.9V44.5z"/>
</svg>
