<svg id="e8f6ad54-cc81-4d43-8120-9afa48bf652c" data-name="Calque 1" xmlns="http://www.w3.org/2000/svg" viewBox="0 0 50 50"><title>entreprise2</title><path d="M45,42.5H27v-7h6.88a.48.48,0,0,0,.37-.17l1.75-2a.49.49,0,0,0,0-.66l-1.75-2a.48.48,0,0,0-.37-.17H27v-8h7.27a.56.56,0,0,0,.37-.15l1.92-2a.5.5,0,0,0,0-.7l-1.92-2a.56.56,0,0,0-.37-.15H27v-2H37.25a.52.52,0,0,0,.38-.17l1.75-2a.51.51,0,0,0,0-.66l-1.75-2a.52.52,0,0,0-.38-.17H27V7a.5.5,0,0,0-.5-.5h-3A.5.5,0,0,0,23,7v3.5H13.25a.46.46,0,0,0-.33.13l-2.25,2a.49.49,0,0,0,0,.74l2.25,2a.46.46,0,0,0,.33.13H23s0,0,0,.07V24.5H11a.46.46,0,0,0-.33.13l-2.25,2a.49.49,0,0,0,0,.74l2.25,2a.46.46,0,0,0,.33.13H23v13H5a.5.5,0,0,0,0,1H45a.5.5,0,0,0,0-1Zm-11.35-11L35,33l-1.31,1.5H27v-3Zm.41-13L35.51,20l-1.45,1.5H27v-3ZM24,7.5h2v3H24ZM11.75,13l1.69-1.5H37L38.34,13,37,14.5H13.44Zm-.54,15.5L9.53,27l1.68-1.5H23v3ZM24,42.5V15.57s0-.05,0-.07h2v27Z"/></svg>