<svg id="456f884b-4120-4879-9020-e31b9e9c4628" data-name="Calque 1" xmlns="http://www.w3.org/2000/svg" viewBox="0 0 50 50"><title>entreprise4</title><path d="M45.59,39.51A34.23,34.23,0,0,0,30.78,31V30.5h3.55a.5.5,0,0,0,.5-.5V23.5a.46.46,0,0,0,0-.2,2.5,2.5,0,0,0,1-2,2.45,2.45,0,0,0-1-2v-2.5a9.46,9.46,0,0,0-6-8.79V7.75a3.5,3.5,0,0,0-7,0v.31a9.46,9.46,0,0,0-6,8.79V19.3a2.52,2.52,0,0,0-.35.3,2.5,2.5,0,0,0,.16,3.53l.23.17a.45.45,0,0,0,0,.2V30a.5.5,0,0,0,.5.5h3.48V31A34.12,34.12,0,0,0,5,39.51l-.14.14v5.24a.93.93,0,0,0,1,.86H44.73a.93.93,0,0,0,1-.86V39.65ZM27.7,16.21a6.29,6.29,0,0,0,4.57,2.61v3.25c0,4-3.22,9-7,9s-7-4.94-7-9V18.84C24.31,18.75,26.78,17.13,27.7,16.21ZM20.81,30a6.59,6.59,0,0,0,4.48,2,6.59,6.59,0,0,0,4.49-2v1.39l-4.49,4.45-4.48-4.45Zm13-.5h-3v-.45a.5.5,0,0,0,0-.13,12.25,12.25,0,0,0,2.35-5.1h.17a2.6,2.6,0,0,0,.56-.06Zm-.56-7.43V19.84a1.49,1.49,0,0,1,0,3h0C33.25,22.57,33.27,22.32,33.27,22.07Zm-8-16.82a2.5,2.5,0,0,1,2.5,2.47,9.32,9.32,0,0,0-5,0A2.5,2.5,0,0,1,25.29,5.25Zm-8.46,11.6a8.47,8.47,0,1,1,16.93,0v2a2.63,2.63,0,0,0-.49-.05v-.5a.5.5,0,0,0-.5-.5,5.34,5.34,0,0,1-4.58-2.72.52.52,0,0,0-.3-.22L27,10.4a.5.5,0,1,0-1,.2l1,4.9c-.74.75-3,2.34-9.17,2.34a.5.5,0,0,0-.5.5v.46h-.11a2.32,2.32,0,0,0-.38.05Zm-.61,3.43a1.42,1.42,0,0,1,1-.48h.09v2.27c0,.23,0,.47,0,.71a1.49,1.49,0,0,1-1.05-.39,1.52,1.52,0,0,1-.48-1A1.45,1.45,0,0,1,16.22,20.28Zm.61,9.22V23.73a1.94,1.94,0,0,0,.53.05h.13a12.12,12.12,0,0,0,2.35,5.13.5.5,0,0,0,0,.13v.45Zm-11,15.24V40.06A33.8,33.8,0,0,1,20,31.94h0l5,4.95a.5.5,0,0,0,.35.15.51.51,0,0,0,.36-.15l5-4.95h0a33.8,33.8,0,0,1,14.1,8.12v4.69ZM7,18.61,6.22,21a.49.49,0,0,0,.18.56.52.52,0,0,0,.29.09.53.53,0,0,0,.3-.09l2-1.46,2,1.46a.51.51,0,0,0,.58,0,.49.49,0,0,0,.18-.56L11,18.61l2-1.46a.49.49,0,0,0,.19-.55.5.5,0,0,0-.48-.35H10.23l-.76-2.36a.52.52,0,0,0-1,0l-.77,2.36H5.27a.49.49,0,0,0-.47.35.47.47,0,0,0,.18.55Zm1.13-1.36a.5.5,0,0,0,.48-.35L9,15.67l.4,1.23a.5.5,0,0,0,.48.35h1.3L10.12,18a.47.47,0,0,0-.18.55l.4,1.24-1.05-.76A.49.49,0,0,0,9,19a.46.46,0,0,0-.29.1l-1.06.76.41-1.24A.5.5,0,0,0,7.87,18l-1.06-.77ZM7,9.61,6.22,12a.49.49,0,0,0,.18.56.52.52,0,0,0,.29.09.53.53,0,0,0,.3-.09l2-1.46,2,1.46a.51.51,0,0,0,.58,0,.49.49,0,0,0,.18-.56L11,9.61l2-1.46a.49.49,0,0,0,.19-.55.5.5,0,0,0-.48-.35H10.23L9.47,4.89a.52.52,0,0,0-1,0L7.75,7.25H5.27a.49.49,0,0,0-.47.35A.47.47,0,0,0,5,8.15ZM8.11,8.25a.5.5,0,0,0,.48-.35L9,6.67l.4,1.23a.5.5,0,0,0,.48.35h1.3L10.12,9a.47.47,0,0,0-.18.55l.4,1.24-1.05-.76A.49.49,0,0,0,9,10a.46.46,0,0,0-.29.1l-1.06.76.41-1.24A.5.5,0,0,0,7.87,9L6.81,8.25ZM7,27.61,6.22,30a.49.49,0,0,0,.18.56.52.52,0,0,0,.29.09.53.53,0,0,0,.3-.09l2-1.46,2,1.46a.51.51,0,0,0,.58,0,.49.49,0,0,0,.18-.56L11,27.61l2-1.46a.49.49,0,0,0,.19-.55.5.5,0,0,0-.48-.35H10.23l-.76-2.36a.52.52,0,0,0-1,0l-.77,2.36H5.27a.49.49,0,0,0-.47.35.47.47,0,0,0,.18.55Zm1.13-1.36a.5.5,0,0,0,.48-.35L9,24.67l.4,1.23a.5.5,0,0,0,.48.35h1.3L10.12,27a.47.47,0,0,0-.18.55l.4,1.24-1.05-.76A.49.49,0,0,0,9,28a.46.46,0,0,0-.29.1l-1.06.76.41-1.24A.5.5,0,0,0,7.87,27l-1.06-.77Zm19.36.4a.48.48,0,0,1,0,.7,3.48,3.48,0,0,1-4.94,0,.49.49,0,0,1,.7-.7,2.57,2.57,0,0,0,3.54,0A.48.48,0,0,1,27.47,26.65ZM19.75,23h4a1,1,0,0,0,1-1V21h1v1a1,1,0,0,0,1,1h4a1,1,0,0,0,1-1V20a1,1,0,0,0-1-1h-4a1,1,0,0,0-1,1h-1a1,1,0,0,0-1-1h-4a1,1,0,0,0-1,1v2A1,1,0,0,0,19.75,23Zm7-3h4v2h-4Zm-7,0h4v2h-4Zm5.5,19.5a1.5,1.5,0,1,0,1.5,1.5A1.5,1.5,0,0,0,25.25,39.5Zm0,2a.5.5,0,1,1,.5-.5A.5.5,0,0,1,25.25,41.5Z"/></svg>