<svg id="88b0d1f5-25c8-43bc-b897-30da3337c375" data-name="Calque 1" xmlns="http://www.w3.org/2000/svg" viewBox="0 0 50 50"><title>entreprise1</title><path d="M35.85,35.85a.49.49,0,0,1-.35.15.51.51,0,0,1-.36-.15L15.32,16a.5.5,0,0,1,.71-.71L35.85,35.14A.5.5,0,0,1,35.85,35.85ZM45.35,12,31.76,25.55,41.94,35.73a.57.57,0,0,1,.13.21l2.14,7.65a.52.52,0,0,1-.13.49.54.54,0,0,1-.36.14h-.13l-7.65-2.14a.57.57,0,0,1-.21-.13L25.55,31.76,12,45.35a.47.47,0,0,1-.35.15.49.49,0,0,1-.36-.15l-6.6-6.6a.49.49,0,0,1-.15-.36A.47.47,0,0,1,4.65,38L18.24,24.45,7,13.22a.25.25,0,0,1,0-.07A4.38,4.38,0,0,1,13.15,7l.07,0L24.45,18.24,38,4.65a.51.51,0,0,1,.71,0l6.6,6.6A.5.5,0,0,1,45.35,12Zm-4.5,24.09L15.12,10.33l-4.79,4.79L36.05,40.85ZM6.78,10.17a3.37,3.37,0,0,0,.62,1.95L12.11,7.4a3.49,3.49,0,0,0-4.34.37A3.36,3.36,0,0,0,6.78,10.17Zm1.28,2.69,1.56,1.56,4.8-4.8L12.86,8.06Zm16.78,18.2-5.9-5.9L5.71,38.39l5.9,5.9,1.83-1.83L9.85,38.88a.5.5,0,0,1,.71-.71l3.58,3.59,1.5-1.5-1.38-1.38a.5.5,0,0,1,0-.71.5.5,0,0,1,.7,0l1.39,1.38,1.49-1.49-1.38-1.38a.5.5,0,0,1,0-.71.51.51,0,0,1,.71,0l1.38,1.38L20,35.86l-3.58-3.59a.48.48,0,0,1,0-.7.5.5,0,0,1,.71,0l3.58,3.58,1.5-1.5-1.39-1.38a.5.5,0,0,1,0-.7.5.5,0,0,1,.71,0L23,33ZM41.32,37,37,41.32,43,43Zm3-25.38-5.9-5.9L25.16,18.94l5.9,5.9,2.2-2.2-3.59-3.58a.5.5,0,1,1,.71-.71L34,21.94l1.49-1.5-1.38-1.38a.5.5,0,0,1,0-.71.51.51,0,0,1,.71,0l1.38,1.38,1.49-1.49-1.38-1.38a.51.51,0,0,1,0-.71.5.5,0,0,1,.71,0l1.38,1.38,1.5-1.5-3.59-3.58a.5.5,0,0,1,.71-.71l3.58,3.59,1.5-1.5-1.38-1.38a.5.5,0,0,1,0-.71.5.5,0,0,1,.7,0l1.38,1.39Z"/></svg>