<svg id="68822853-b159-4d69-bf5e-29f58b1624a5" data-name="Calque 1" xmlns="http://www.w3.org/2000/svg" viewBox="0 0 50 50"><title>individuel2</title><path d="M39.76,10.24A14.55,14.55,0,0,0,17.5,28.81L6.74,39.57a2.61,2.61,0,0,0,3.69,3.69L21.19,32.5A14.55,14.55,0,0,0,39.76,10.24ZM7.45,42.55a1.62,1.62,0,0,1-.29-1.86l2.15,2.15A1.62,1.62,0,0,1,7.45,42.55ZM20.31,32,10.08,42.2,7.8,39.92,18,29.69l1.14,1.14h0Zm18.74-1.85a13.57,13.57,0,0,1-19.17,0h0a13.56,13.56,0,1,1,19.18,0ZM37.77,12.23a11.75,11.75,0,1,0,0,16.61A11.67,11.67,0,0,0,37.77,12.23Zm-.71,15.91a10.74,10.74,0,1,1,0-15.2A10.76,10.76,0,0,1,37.06,28.14ZM29.28,13.72a.5.5,0,0,1-.5.5A5.76,5.76,0,0,0,23,20a.5.5,0,0,1-.5.5A.5.5,0,0,1,22,20a6.76,6.76,0,0,1,6.76-6.75A.51.51,0,0,1,29.28,13.72Z"/></svg>