<svg id="07bd4dc8-0a4a-4c24-8d20-64a9fd60b2d9" data-name="Calque 1" xmlns="http://www.w3.org/2000/svg" viewBox="0 0 50 50"><title>individuel3</title><path d="M42.14,16.44a2.65,2.65,0,0,0-5.29,0,.09.09,0,0,0,0,0V39a.54.54,0,0,0,.06.25L39.06,43a.5.5,0,0,0,.43.25.52.52,0,0,0,.44-.25l2.15-3.83a.55.55,0,0,0,.07-.25V16.49S42.14,16.46,42.14,16.44Zm-2.65-1.56A1.65,1.65,0,0,1,41.05,16H37.94A1.63,1.63,0,0,1,39.49,14.88Zm1.66,2.87H37.84V17h3.31ZM37.84,38.44V18.75h3.31V38.44Zm1.65,3.33-1.31-2.33H40.8ZM40,20.84V36.35a.5.5,0,0,1-.5.5.5.5,0,0,1-.5-.5V20.84a.5.5,0,0,1,.5-.5A.5.5,0,0,1,40,20.84ZM34.6,9.5H31.85V7a.5.5,0,0,0-.5-.5h-23a.5.5,0,0,0-.5.5V40a.5.5,0,0,0,.5.5H11.1V43a.5.5,0,0,0,.5.5h23a.5.5,0,0,0,.5-.5V10A.5.5,0,0,0,34.6,9.5ZM8.85,39.5V7.5h22v2H11.6a.5.5,0,0,0-.5.5V39.5Zm25.25,3h-22v-32h22ZM30.6,15a.5.5,0,0,1-.5.5h-14a.5.5,0,0,1,0-1h14A.5.5,0,0,1,30.6,15Zm0,4a.5.5,0,0,1-.5.5h-14a.5.5,0,1,1,0-1h14A.5.5,0,0,1,30.6,19Zm0,4a.5.5,0,0,1-.5.5h-14a.5.5,0,1,1,0-1h14A.5.5,0,0,1,30.6,23Zm0,4a.5.5,0,0,1-.5.5h-14a.5.5,0,1,1,0-1h14A.5.5,0,0,1,30.6,27Zm0,4a.5.5,0,0,1-.5.5h-14a.5.5,0,1,1,0-1h14A.5.5,0,0,1,30.6,31Zm0,4a.5.5,0,0,1-.5.5h-14a.5.5,0,1,1,0-1h14A.5.5,0,0,1,30.6,35Z"/></svg>